<mxfile host="app.diagrams.net" modified="2024-02-05T12:20:33.845Z" agent="Mozilla/5.0 (Windows NT 10.0; Win64; x64) AppleWebKit/537.36 (KHTML, like Gecko) Chrome/121.0.0.0 Safari/537.36 Edg/121.0.0.0" etag="pC0CE_d8geoDPyoORO03" version="22.1.17" type="device">
  <diagram name="PÃ¡gina-1" id="hvAaGk4Yln3qoBOfhNzv">
    <mxGraphModel dx="1042" dy="617" grid="1" gridSize="10" guides="1" tooltips="1" connect="1" arrows="1" fold="1" page="1" pageScale="1" pageWidth="827" pageHeight="1169" math="0" shadow="0">
      <root>
        <mxCell id="0" />
        <mxCell id="1" parent="0" />
        <mxCell id="BgzgWV8876Qub55LCPH5-1" value="" style="rounded=0;whiteSpace=wrap;html=1;" vertex="1" parent="1">
          <mxGeometry x="240" y="140" width="290" height="310" as="geometry" />
        </mxCell>
        <mxCell id="BgzgWV8876Qub55LCPH5-2" value="COMPARATIVA" style="rounded=0;whiteSpace=wrap;html=1;" vertex="1" parent="1">
          <mxGeometry x="240" y="140" width="290" height="60" as="geometry" />
        </mxCell>
        <mxCell id="BgzgWV8876Qub55LCPH5-3" value="@christian" style="rounded=0;whiteSpace=wrap;html=1;" vertex="1" parent="1">
          <mxGeometry x="240" y="390" width="290" height="60" as="geometry" />
        </mxCell>
        <mxCell id="BgzgWV8876Qub55LCPH5-11" value="" style="group" vertex="1" connectable="0" parent="1">
          <mxGeometry x="305" y="220" width="160" height="150" as="geometry" />
        </mxCell>
        <mxCell id="BgzgWV8876Qub55LCPH5-5" value="" style="rounded=0;whiteSpace=wrap;html=1;container=1;" vertex="1" parent="BgzgWV8876Qub55LCPH5-11">
          <mxGeometry width="160" height="150" as="geometry" />
        </mxCell>
        <mxCell id="BgzgWV8876Qub55LCPH5-6" value="textoIntroduccion" style="rounded=0;whiteSpace=wrap;html=1;" vertex="1" parent="BgzgWV8876Qub55LCPH5-11">
          <mxGeometry x="20" y="10" width="120" height="30" as="geometry" />
        </mxCell>
        <mxCell id="BgzgWV8876Qub55LCPH5-8" value="A&lt;span style=&quot;white-space: pre;&quot;&gt;&#x9;&lt;/span&gt;" style="rounded=0;whiteSpace=wrap;html=1;fontStyle=1" vertex="1" parent="BgzgWV8876Qub55LCPH5-11">
          <mxGeometry x="26" y="40" width="55" height="100" as="geometry" />
        </mxCell>
        <mxCell id="BgzgWV8876Qub55LCPH5-9" value="&lt;b&gt;B&lt;/b&gt;" style="rounded=0;whiteSpace=wrap;html=1;" vertex="1" parent="BgzgWV8876Qub55LCPH5-11">
          <mxGeometry x="81" y="40" width="55" height="100" as="geometry" />
        </mxCell>
        <mxCell id="BgzgWV8876Qub55LCPH5-13" value="text" style="rounded=0;whiteSpace=wrap;html=1;" vertex="1" parent="BgzgWV8876Qub55LCPH5-11">
          <mxGeometry x="26" y="120" width="54" height="20" as="geometry" />
        </mxCell>
        <mxCell id="BgzgWV8876Qub55LCPH5-21" value="text" style="rounded=0;whiteSpace=wrap;html=1;" vertex="1" parent="BgzgWV8876Qub55LCPH5-11">
          <mxGeometry x="82" y="120" width="54" height="20" as="geometry" />
        </mxCell>
      </root>
    </mxGraphModel>
  </diagram>
</mxfile>
